<svg width="72" height="72" viewBox="0 0 72 72" fill="none" xmlns="http://www.w3.org/2000/svg">
<path fill-rule="evenodd" clip-rule="evenodd" d="M25.1279 10.0019C25.5452 9.37598 26.2477 9 27 9H45C45.7523 9 46.4548 9.37598 46.8721 10.0019L50.7042 15.75H58.5C60.2902 15.75 62.0071 16.4612 63.273 17.727C64.5388 18.9929 65.25 20.7098 65.25 22.5V54C65.25 55.7902 64.5388 57.5071 63.273 58.773C62.0071 60.0388 60.2902 60.75 58.5 60.75H13.5C11.7098 60.75 9.9929 60.0388 8.72703 58.773C7.46116 57.5071 6.75 55.7902 6.75 54V22.5C6.75 20.7098 7.46116 18.9929 8.72703 17.727C9.9929 16.4612 11.7098 15.75 13.5 15.75H21.2958L25.1279 10.0019ZM28.2042 13.5L24.3721 19.2481C23.9548 19.874 23.2523 20.25 22.5 20.25H13.5C12.9033 20.25 12.331 20.4871 11.909 20.909C11.4871 21.331 11.25 21.9033 11.25 22.5V54C11.25 54.5967 11.4871 55.169 11.909 55.591C12.331 56.0129 12.9033 56.25 13.5 56.25H58.5C59.0967 56.25 59.669 56.0129 60.091 55.591C60.5129 55.169 60.75 54.5967 60.75 54V22.5C60.75 21.9033 60.5129 21.331 60.091 20.909C59.669 20.4871 59.0967 20.25 58.5 20.25H49.5C48.7477 20.25 48.0452 19.874 47.6279 19.2481L43.7958 13.5H28.2042Z" fill="white"/>
<path fill-rule="evenodd" clip-rule="evenodd" d="M36 29.25C31.6508 29.25 28.125 32.7758 28.125 37.125C28.125 41.4742 31.6508 45 36 45C40.3492 45 43.875 41.4742 43.875 37.125C43.875 32.7758 40.3492 29.25 36 29.25ZM23.625 37.125C23.625 30.2905 29.1655 24.75 36 24.75C42.8345 24.75 48.375 30.2905 48.375 37.125C48.375 43.9595 42.8345 49.5 36 49.5C29.1655 49.5 23.625 43.9595 23.625 37.125Z" fill="white"/>
</svg>
