<svg width="50" height="50" viewBox="0 0 50 50" fill="none" xmlns="http://www.w3.org/2000/svg">
<g clip-path="url(#clip0_2691_22183)">
<path d="M37.5 42.1875V7.8125C37.5 6.08661 36.1009 4.6875 34.375 4.6875L15.625 4.6875C13.8991 4.6875 12.5 6.08661 12.5 7.8125L12.5 42.1875C12.5 43.9134 13.8991 45.3125 15.625 45.3125H34.375C36.1009 45.3125 37.5 43.9134 37.5 42.1875Z" stroke="#00B45A" stroke-width="2.34375" stroke-linecap="round" stroke-linejoin="round"/>
<path d="M25 13.6719C26.0787 13.6719 26.9531 12.7974 26.9531 11.7188C26.9531 10.6401 26.0787 9.76562 25 9.76562C23.9213 9.76562 23.0469 10.6401 23.0469 11.7188C23.0469 12.7974 23.9213 13.6719 25 13.6719Z" fill="#00B45A"/>
</g>
<defs>
<clipPath id="clip0_2691_22183">
<rect width="50" height="50" fill="white"/>
</clipPath>
</defs>
</svg>
