<svg width="239" height="120" viewBox="0 0 239 120" fill="none" xmlns="http://www.w3.org/2000/svg">
<path d="M40.5762 56.7148L40.4492 54.3516L42.4316 55.6602L43.0176 54.6348L40.9277 53.5801L43.0176 52.5059L42.4316 51.4805L40.4492 52.8086L40.5859 50.4258H39.4238L39.5508 52.8184L37.5684 51.4805L36.9824 52.5156L39.0625 53.5801L36.9824 54.6348L37.5684 55.6602L39.5508 54.3516L39.4336 56.7148H40.5762Z" fill="white"/>
<path d="M68.5762 56.7148L68.4492 54.3516L70.4316 55.6602L71.0176 54.6348L68.9277 53.5801L71.0176 52.5059L70.4316 51.4805L68.4492 52.8086L68.5859 50.4258H67.4238L67.5508 52.8184L65.5684 51.4805L64.9824 52.5156L67.0625 53.5801L64.9824 54.6348L65.5684 55.6602L67.5508 54.3516L67.4336 56.7148H68.5762Z" fill="white"/>
<path d="M96.5762 56.7148L96.4492 54.3516L98.4316 55.6602L99.0176 54.6348L96.9277 53.5801L99.0176 52.5059L98.4316 51.4805L96.4492 52.8086L96.5859 50.4258H95.4238L95.5508 52.8184L93.5684 51.4805L92.9824 52.5156L95.0625 53.5801L92.9824 54.6348L93.5684 55.6602L95.5508 54.3516L95.4336 56.7148H96.5762Z" fill="white"/>
<rect x="1" y="3" width="237" height="116" rx="9" stroke="white" stroke-width="2"/>
<rect x="19.75" y="0.75" width="27.5" height="1.5" rx="0.75" stroke="white" stroke-width="1.5"/>
<rect x="57.75" y="0.75" width="12.5" height="1.5" rx="0.75" stroke="white" stroke-width="1.5"/>
<rect x="18.5" y="18.5" width="132" height="85" rx="9.5" fill="white" fill-opacity="0.1" stroke="white"/>
<rect x="161.5" y="33.5" width="24" height="55" rx="3.5" fill="white" fill-opacity="0.1" stroke="white"/>
<rect x="28.5" y="40.5" width="24" height="40" rx="2.5" stroke="white"/>
<rect x="56.5" y="40.5" width="24" height="40" rx="2.5" stroke="white"/>
<rect x="84.5" y="40.5" width="24" height="40" rx="2.5" stroke="white"/>
<rect x="112.5" y="40.5" width="24" height="40" rx="2.5" stroke="white"/>
</svg>
