<svg width="53" height="53" viewBox="0 0 53 53" fill="none" xmlns="http://www.w3.org/2000/svg">
<g clip-path="url(#clip0_3090_20437)">
<path d="M4.96875 12.4219H31.4688C33.2258 12.4219 34.9109 13.1199 36.1533 14.3623C37.3958 15.6047 38.0938 17.2898 38.0938 19.0469V38.9219C38.0938 39.3611 37.9193 39.7824 37.6086 40.093C37.298 40.4036 36.8768 40.5781 36.4375 40.5781H9.9375C8.18044 40.5781 6.49535 39.8801 5.25292 38.6377C4.01049 37.3953 3.3125 35.7102 3.3125 33.9531V14.0781C3.3125 13.6389 3.487 13.2176 3.7976 12.907C4.10821 12.5964 4.52949 12.4219 4.96875 12.4219Z" stroke="white" stroke-width="2.48438" stroke-linecap="round" stroke-linejoin="round"/>
<path d="M38.0938 23.1875L49.6875 16.5625V36.4375L38.0938 29.8125" stroke="white" stroke-width="2.48438" stroke-linecap="round" stroke-linejoin="round"/>
</g>
<defs>
<clipPath id="clip0_3090_20437">
<rect width="53" height="53" fill="white"/>
</clipPath>
</defs>
</svg>
